<?xml version="1.0" standalone="no"?>
<!DOCTYPE svg PUBLIC "-//W3C//DTD SVG 20010904//EN"
 "http://www.w3.org/TR/2001/REC-SVG-20010904/DTD/svg10.dtd">
<svg version="1.0" xmlns="http://www.w3.org/2000/svg"
 width="145.000000pt" height="101.000000pt" viewBox="0 0 145.000000 101.000000"
 preserveAspectRatio="xMidYMid meet">

<g transform="translate(0.000000,101.000000) scale(0.100000,-0.100000)"
fill="#000000" stroke="none">
<path d="M567 913 c-4 -3 -7 -127 -7 -274 0 -230 2 -270 16 -283 13 -14 64
-16 404 -16 342 0 390 2 404 16 14 14 16 50 14 287 l-3 272 -411 3 c-226 1
-413 -1 -417 -5z m728 -283 l0 -185 -315 0 -315 0 -3 188 -2 187 317 -2 318
-3 0 -185z"/>
<path d="M575 284 c-13 -13 -15 -34 -13 -108 l3 -91 415 0 415 0 3 91 c2 74 0
95 -13 108 -15 14 -61 16 -405 16 -344 0 -390 -2 -405 -16z m695 -59 c26 -32
-13 -81 -47 -59 -23 14 -28 41 -13 59 16 19 44 19 60 0z m-270 -25 c0 -19 -7
-20 -160 -20 -153 0 -160 1 -160 20 0 19 7 20 160 20 153 0 160 -1 160 -20z"/>
</g>
</svg>
